<?xml version="1.0" standalone="no"?>
<!DOCTYPE svg PUBLIC "-//W3C//DTD SVG 20010904//EN"
 "http://www.w3.org/TR/2001/REC-SVG-20010904/DTD/svg10.dtd">
<svg version="1.0" xmlns="http://www.w3.org/2000/svg"
 preserveAspectRatio="xMidYMid meet">
<metadata>
Created by potrace 1.15, written by Peter Selinger 2001-2017
</metadata>
<g transform="translate(0.000000,480.000000) scale(0.100000,-0.100000)"
fill="#000000" stroke="none">
<path d="M670 4125 c-29 -35 -9 -105 31 -105 17 0 19 -8 19 -60 l0 -60 -97 0
c-82 0 -106 -4 -148 -24 -73 -34 -110 -69 -144 -138 l-31 -61 0 -1336 0 -1336
24 -50 c34 -73 69 -110 138 -144 l61 -31 1877 0 1877 0 61 31 c69 34 104 71
138 144 l24 50 0 1335 0 1335 -24 50 c-34 73 -69 110 -138 144 l-61 31 -1089
0 -1088 0 0 59 c0 54 2 60 22 63 34 5 53 50 36 86 l-13 27 -375 0 -375 0 -13
-27 c-17 -36 2 -81 36 -86 20 -3 22 -9 22 -63 l0 -59 -150 0 -150 0 0 59 c0
54 2 60 22 63 34 5 53 50 36 86 l-13 27 -251 3 c-218 2 -253 0 -264 -13z m350
-165 l0 -60 -90 0 -90 0 0 60 0 60 90 0 90 0 0 -60z m960 0 l0 -60 -210 0
-210 0 0 60 0 60 210 0 210 0 0 -60z m2296 -202 c39 -21 82 -71 92 -106 4 -15
7 -610 7 -1322 0 -1204 -1 -1297 -17 -1326 -21 -39 -71 -82 -106 -92 -35 -9
-3669 -9 -3704 0 -35 10 -85 53 -106 92 -16 29 -17 123 -20 1281 -2 688 0
1278 3 1312 10 94 62 158 142 173 21 5 857 7 1858 6 1698 -1 1822 -2 1851 -18z"/>
<path d="M3660 3450 l0 -90 270 0 270 0 0 90 0 90 -270 0 -270 0 0 -90z"/>
<path d="M2540 3401 c-305 -67 -558 -265 -696 -546 -85 -173 -98 -234 -98
-455 0 -215 13 -277 89 -437 105 -222 266 -383 488 -488 160 -76 222 -89 437
-89 159 0 196 3 264 22 100 28 250 99 332 157 140 100 253 236 329 398 76 160
89 222 89 437 0 215 -13 277 -89 437 -105 222 -266 383 -488 488 -147 70 -224
87 -412 91 -129 3 -176 0 -245 -15z m333 -116 c178 -15 375 -112 518 -254 192
-193 281 -443 257 -721 -36 -413 -385 -762 -799 -798 -277 -24 -528 65 -720
257 -192 192 -281 443 -257 720 26 298 217 574 493 713 111 57 320 102 415 92
14 -2 56 -6 93 -9z"/>
<path d="M2572 3100 c-245 -65 -449 -270 -512 -516 -14 -53 -20 -111 -20 -184
0 -208 65 -365 210 -510 145 -145 302 -210 510 -210 208 0 365 65 510 210 145
145 210 302 210 510 0 73 -6 131 -20 184 -63 248 -268 453 -516 516 -103 27
-270 26 -372 0z m353 -131 c251 -72 426 -306 426 -569 0 -161 -52 -289 -165
-409 -192 -200 -487 -241 -726 -101 -77 45 -174 143 -217 220 -105 186 -99
431 15 606 148 226 411 326 667 253z"/>
<path d="M1414 2486 c-30 -30 -34 -40 -34 -86 0 -46 4 -56 34 -86 30 -30 40
-34 86 -34 75 0 120 45 120 120 0 46 -4 56 -34 86 -30 30 -40 34 -86 34 -46 0
-56 -4 -86 -34z"/>
</g>
</svg>
